<svg width="1088" height="940" viewBox="0 0 1088 940" fill="none" xmlns="http://www.w3.org/2000/svg">
<g clip-path="url(#clip0_25_784)">
<path fill-rule="evenodd" clip-rule="evenodd" d="M911.082 808.32C913.006 793.501 906.915 794.387 900.844 780.733C894.772 767.078 892.944 767.89 886.873 754.235C880.8 740.578 882.627 739.765 876.554 726.107C870.481 712.45 868.626 713.273 862.581 699.603C861.584 697.203 858.641 691.5 852.671 686.208C848.791 682.769 843.005 680.542 838.471 676.864C833.913 673.168 830.554 667.978 826.488 664.824C818.831 658.884 818.638 661.218 811.863 656.196C809.267 654.283 807.823 646.133 804.548 637.111C802.447 631.322 798.341 625.375 796.019 618.738C793.735 612.208 793.219 604.939 790.765 599.145C787.501 591.439 782.506 586.192 779.031 582.975C775.833 580.014 771.178 578.443 765.527 580.267C761.335 581.621 757.629 585.719 753.245 588.396C748.976 591.003 743.705 592.338 740.176 595.155C734.672 599.549 732.204 604.641 731.334 606.342C728.414 616.181 727.354 613.951 724.079 625.608C722.427 631.485 722.384 638.814 720.222 645.869C718.253 652.29 714.216 658.332 711.995 664.782C709.648 671.596 709.073 678.889 706.63 684.701C703.772 691.501 698.63 695.08 694.706 698.682C689.947 703.051 685.784 707.419 680.451 710.333C675.285 713.156 668.915 714.549 664.215 719.293C660.5 723.042 658.718 728.988 655.848 735.747C651.294 746.585 649.462 745.816 644.921 756.659C640.38 767.503 642.225 768.275 637.683 779.119C633.141 789.964 631.296 789.191 626.754 800.036C622.212 810.881 614.799 810.938 619.509 821.712C623.957 831.884 628.963 826.202 639.616 829.332C650.269 832.463 650.833 830.544 661.486 833.674C672.141 836.805 671.577 838.724 682.231 841.855C692.886 844.986 692.744 845.903 703.846 846.158C721.892 846.572 721.84 845.672 739.72 843.196C757.6 840.719 757.326 838.738 775.206 836.262C793.087 833.786 793.362 835.767 811.244 833.291C829.126 830.814 828.939 829.663 846.688 826.364C855.03 824.813 855.299 825.945 863.448 823.584C871.598 821.221 871.041 819.3 879.191 816.938C887.342 814.576 887.33 814.496 895.81 814.173C904.849 813.829 909.989 816.736 911.082 808.32Z" fill="#3C5B5A"/>
<path fill-rule="evenodd" clip-rule="evenodd" d="M1001.29 855.499C1004.41 837.97 998.828 838.491 992.521 821.843C986.213 805.192 982.473 806.609 976.166 789.959C969.858 773.309 973.569 771.906 967.293 755.244C966.35 752.56 957.654 748.92 950.944 742.501C946.29 738.048 943.732 730.348 938.937 726.114C930.7 718.842 928.891 722.526 921.241 716.147C918.552 713.919 918.9 702.736 915.769 691.841C913.648 684.46 907.574 677.419 905.165 669.959C902.091 660.44 902.1 650.139 898.43 646.324C895.041 642.802 888.161 646.817 881.458 649.505C876.412 651.527 869.202 651.125 864.536 654.3C857.813 658.874 855.509 665.887 854.486 667.702C850.534 679.318 847.681 676.476 843.198 689.784C840.798 696.907 841.745 706.308 838.742 714.251C835.709 722.276 828.809 728.63 825.649 735.351C821.925 743.27 819.926 750.65 814.587 754.315C808.352 758.596 799.36 757.888 793.337 761.755C787.712 765.367 785.651 772.57 782.408 780.72C776.63 793.517 772.815 791.761 766.856 804.475C760.896 817.189 764.518 818.889 758.557 831.604C752.597 844.318 738.057 843.719 742.952 856.881C747.493 869.094 757.783 858.614 770.076 862.933C782.372 867.251 781.046 871.024 793.342 875.344C805.637 879.657 805.734 879.187 818.734 880.097C839.867 881.567 839.873 882.097 860.963 880.097C882.055 878.107 881.679 874.127 902.772 872.135C923.864 870.143 924.451 875.103 945.426 872.122C955.301 870.719 954.353 865.817 964.039 863.436C973.726 861.053 973.918 862.629 983.894 862.613C994.148 862.597 999.55 865.32 1001.29 855.499Z" fill="#3C5B5A"/>
<path fill-rule="evenodd" clip-rule="evenodd" d="M799.359 913.837C810.672 912.627 822.51 915.977 834.012 917.217C846.168 918.527 858.316 917.857 868.695 920.107C884.547 923.537 896.858 929.897 902.54 930.057C908.479 930.227 920.552 924.608 934.507 920.908C944.857 918.178 956.726 917.757 966.903 914.707C981.702 910.267 993.64 903.458 997.953 902.368C1004.28 900.768 1011.05 902.357 1017.31 901.217C1023.66 900.077 1029.62 896.188 1035.98 895.308C1042.3 894.428 1048.96 896.557 1055.37 895.717C1057.97 895.377 1061.47 892.188 1065.52 891.698C1068.96 891.278 1073.04 893.608 1076.31 892.688C1080.26 891.588 1082.42 887.567 1084.35 885.167C1086.52 882.467 1088.78 880.187 1087.74 877.917C1086.75 875.775 1082.96 875.904 1080.59 874.505C1078.39 873.207 1076.69 869.537 1074.47 869.175C1070.73 868.566 1063.25 871.373 1054.6 870.865C1048.54 870.51 1042.02 867.031 1035.27 866.003C1028.64 864.99 1021.43 866.37 1015.51 864.134C1010.16 862.114 1006.31 856.891 1001.92 854.102C996.826 850.862 990.932 849.698 987.278 846.204C982.011 841.166 980.283 834.408 978.437 830.979C975.435 825.405 967.628 821.054 960.416 815.28C954.418 810.477 948.807 803.493 942.016 800.194C934.121 796.359 925.897 796.874 919.743 797.251C908.169 797.962 897.631 796.636 888.213 798.535C877.064 800.783 867.541 806.354 857.838 808.47C847.436 810.739 837.15 809.448 826.375 809.245C815.033 809.031 805.044 809.237 796.813 805.354C786.913 800.685 780.079 791.656 772.638 785.384C763.932 778.047 754.928 773.57 746.275 770.052C739.621 767.347 732.527 764.904 724.937 766.404C717.98 767.779 711.277 772.975 704.136 774.657C696.758 776.395 689.38 774.576 682.432 773.294C675.721 772.058 667.704 772.07 660.508 768.602C653.546 765.246 647.812 758.614 641.667 754.819C633.374 749.699 625.165 747.519 621.034 745.069C616.054 742.116 608.774 730.627 597.896 720.918C590.208 714.056 580.008 709.312 570.674 703.667C561.215 697.948 551.864 691.054 541.826 690.514C533.445 690.063 525.972 695.321 518.295 699.076C510.859 702.711 502.488 704.961 495.335 709.667C487.978 714.507 481.754 721.833 474.297 724.769C468.149 727.19 461.58 725.322 455.477 725.399C449.255 725.478 442.832 727.522 436.656 726.212C430.546 724.917 424.998 720.314 418.934 718.688C412.148 716.87 405.133 719.251 398.424 719.785C391.625 720.325 384.419 719.083 377.946 721.552C371.5 724.011 366.349 729.977 360.472 733.865C354.422 737.867 347.276 739.883 341.435 744.191C335.522 748.553 330.775 755.279 324.389 758.423C318.133 761.505 310.894 760.809 303.526 761.261C297.025 761.66 290.963 764.074 285.163 763.337C279.009 762.556 273.288 758.599 267.169 758.196C261.358 757.813 255.568 760.904 249.105 762.363C241.67 764.041 234.542 763.491 228.684 766.253C222.242 769.29 217.61 775.552 211.692 779.706C206.225 783.542 199.271 785.326 193.061 789.948C186.441 794.877 179.979 799.789 172.181 800.888C164.818 801.927 156.827 799.033 148.86 799.427C141.324 799.8 133.982 803.39 126.283 805.527C116.35 808.285 108.899 809.455 103.582 813.738C97.1982 818.88 93.8159 827.153 86.229 832.686C80.8723 836.592 73.0673 837.699 63.4656 840.961C55.7367 843.588 47.8938 848.816 39.5906 851.37C30.8263 854.066 21.4715 854.171 14.552 857.688C4.81289 862.638 0 870.208 0 878.998C0 884.698 7.88452 889.897 20.1554 892.357C27.9742 893.917 37.275 892.048 45.7182 892.748C55.992 893.598 65.3468 896.887 70.9776 897.037C78.2188 897.227 86.4054 896.557 94.3499 899.357C101.745 901.957 108.54 907.887 115.953 910.337C123.923 912.967 132.048 911.937 139.355 911.597C145.885 911.287 152.199 913.038 158.018 911.658C164.115 910.218 169.536 905.627 175.67 904.447C181.498 903.337 187.674 905.598 194.27 906.018C201.636 906.488 209.009 905.318 215.855 907.388C222.804 909.498 228.999 914.808 236.008 916.668C242.857 918.478 250.14 916.817 257.612 916.597C268.158 916.287 277.44 917.628 285.464 915.668C295.557 913.208 303.616 907.258 311.939 905.368C320.911 903.328 329.501 905.527 339.4 908.427C349.636 911.437 359.728 911.107 369.132 913.187C378.89 915.347 388.146 919.927 398.339 921.097C407.658 922.167 417.598 919.878 428.365 920.118C438.842 920.358 449.409 923.308 459.979 923.048C470.526 922.778 480.956 919.297 491.433 918.447C502.022 917.577 512.797 919.328 523.145 917.768C532.891 916.298 544.285 911.968 556.328 910.888C567.622 909.868 579.379 912.068 590.056 911.798C603.664 911.458 615.933 908.948 623.821 910.538C631.09 911.998 640.905 918.798 653.434 922.868C662.589 925.848 673.466 926.028 684.499 928.248C694.388 930.238 704.646 934.488 715.445 934.488C726.718 934.488 735.73 930.548 743.716 928.998C754.581 926.888 763.746 926.648 772.001 923.768C780.823 920.678 788.791 914.957 799.359 913.837Z" fill="#83C7C9"/>
<path fill-rule="evenodd" clip-rule="evenodd" d="M111 866.658C112.133 866.244 113.345 865.975 114.586 865.968C115.204 865.95 115.797 865.994 116.362 865.974C116.929 865.957 117.479 865.898 118.031 865.783C119.13 865.574 120.261 865.248 121.261 864.814C121.761 864.586 122.226 864.336 122.711 864.034C123.195 863.737 123.729 863.373 124.33 863.065C125.538 862.436 126.805 862.064 128.05 861.813C129.281 861.531 130.731 861.475 131.986 861.619C133.21 861.755 134.095 861.801 135.175 861.626C136.269 861.474 137.254 861.236 138.126 860.797C138.569 860.579 139.002 860.309 139.528 859.967C140.05 859.631 140.7 859.236 141.414 858.976C142.124 858.721 142.863 858.566 143.547 858.526C143.9 858.482 144.226 858.501 144.566 858.488C144.929 858.492 145.352 858.524 145.779 858.627C146.652 858.797 147.574 859.489 148.034 860.058C148.53 860.633 148.79 860.999 149.095 861.253C149.398 861.517 149.728 861.684 150.212 861.839C150.673 861.992 151.053 862.047 151.511 862.022C151.966 861.993 152.686 861.84 153.45 861.897C154.21 861.953 154.89 862.16 155.516 862.441C156.143 862.715 156.804 863.117 157.319 863.641C157.845 864.166 158.164 864.625 158.541 864.952C158.907 865.297 159.377 865.563 159.887 865.782C160.398 866.001 160.907 866.132 161.447 866.172C161.984 866.208 162.6 866.096 163.234 866.148C163.865 866.205 164.459 866.395 165 866.676C164.404 866.589 163.813 866.558 163.255 866.676C162.699 866.77 162.159 867.014 161.51 867.139C160.864 867.269 160.18 867.218 159.551 867.088C158.92 866.958 158.267 866.757 157.651 866.378C157.031 865.998 156.554 865.485 156.154 865.21C155.752 864.913 155.328 864.746 154.832 864.613C154.335 864.486 153.842 864.407 153.413 864.437C152.986 864.457 152.54 864.62 151.82 864.754C151.097 864.887 150.274 864.857 149.582 864.697C148.913 864.56 148.109 864.266 147.447 863.777C146.772 863.299 146.26 862.673 145.927 862.335C145.567 861.986 145.45 861.939 145.146 861.877C144.99 861.855 144.818 861.849 144.589 861.853C144.336 861.874 144.065 861.864 143.829 861.907C143.328 861.952 142.896 862.075 142.485 862.236C142.075 862.395 141.681 862.626 141.188 862.953C140.699 863.275 140.111 863.665 139.473 863.981C138.18 864.609 136.813 864.909 135.552 865.054C134.903 865.133 134.22 865.16 133.541 865.129C132.861 865.1 132.2 865.001 131.639 864.91C130.538 864.728 129.589 864.719 128.477 864.856C127.379 864.997 126.31 865.2 125.334 865.586C124.842 865.782 124.332 866.032 123.751 866.302C123.174 866.572 122.542 866.822 121.912 866.988C120.642 867.307 119.427 867.465 118.162 867.487C116.891 867.505 115.617 867.206 114.505 866.929C113.379 866.667 112.203 866.625 111 866.658Z" fill="#509FA6"/>
<path fill-rule="evenodd" clip-rule="evenodd" d="M221 815.361C221.947 815.074 222.905 814.827 223.881 814.637C224.855 814.457 225.853 814.354 226.839 814.302C227.826 814.243 228.787 814.22 229.734 814.101C230.68 813.989 231.62 813.802 232.557 813.584C234.439 813.138 236.293 812.616 238.014 811.816C238.879 811.418 239.752 810.958 240.703 810.533C241.649 810.105 242.634 809.744 243.616 809.442C245.582 808.869 247.536 808.409 249.616 808.218C250.65 808.121 251.697 808.119 252.658 808.128C253.622 808.133 254.519 808.105 255.434 807.999C256.346 807.889 257.267 807.74 258.194 807.546C259.104 807.349 259.983 807.131 260.818 806.806C261.661 806.493 262.452 806.11 263.299 805.63C264.144 805.163 265.111 804.588 266.198 804.205C267.278 803.818 268.391 803.625 269.451 803.551C269.991 803.491 270.506 803.509 271.033 803.488C271.574 803.505 272.111 803.509 272.672 803.589C273.774 803.724 274.982 804.075 276.009 804.685C277.04 805.29 277.809 805.928 278.556 806.379C279.305 806.844 280.089 807.19 280.941 807.455C281.785 807.717 282.734 807.942 283.608 808.084C284.502 808.235 285.365 808.26 286.338 808.261C287.321 808.264 288.414 808.304 289.446 808.487C290.485 808.659 291.475 808.914 292.457 809.219C293.438 809.521 294.429 809.883 295.376 810.376C296.333 810.86 297.185 811.452 298.007 811.915C298.831 812.386 299.689 812.764 300.592 813.087C301.491 813.413 302.418 813.703 303.345 813.924C304.275 814.147 305.207 814.26 306.17 814.324C307.133 814.381 308.144 814.404 309.126 814.585C310.108 814.768 311.065 815.035 312 815.366C311.025 815.238 310.053 815.125 309.086 815.128C308.12 815.105 307.171 815.226 306.182 815.32C304.176 815.534 302.14 815.234 300.179 814.793C299.192 814.561 298.195 814.225 297.24 813.796C296.279 813.367 295.424 812.886 294.566 812.557C293.705 812.221 292.82 811.952 291.902 811.742C290.986 811.526 290.054 811.359 289.151 811.275C288.242 811.183 287.374 811.214 286.404 811.277C285.424 811.339 284.326 811.358 283.278 811.235C282.212 811.115 281.235 810.94 280.187 810.653C279.148 810.373 278.089 809.953 277.114 809.391C276.126 808.835 275.308 808.183 274.596 807.801C273.885 807.405 273.165 807.216 272.326 807.123C271.917 807.068 271.475 807.067 271.038 807.055C270.59 807.079 270.125 807.064 269.692 807.119C268.802 807.186 267.97 807.346 267.189 807.63C266.405 807.896 265.633 808.338 264.728 808.835C263.829 809.331 262.826 809.827 261.807 810.179C260.788 810.548 259.75 810.782 258.737 810.977C257.74 811.164 256.722 811.311 255.687 811.391C254.654 811.475 253.593 811.468 252.603 811.425C251.609 811.388 250.7 811.334 249.782 811.376C247.957 811.461 246.049 811.767 244.206 812.162C243.288 812.375 242.396 812.633 241.508 812.96C240.624 813.283 239.704 813.695 238.727 814.026C236.768 814.708 234.774 815.072 232.8 815.32C231.804 815.424 230.8 815.495 229.794 815.487C228.788 815.482 227.792 815.395 226.825 815.293C224.898 815.083 222.96 815.168 221 815.361Z" fill="#509FA6"/>
<path fill-rule="evenodd" clip-rule="evenodd" d="M487 760.361C487.947 760.074 488.905 759.827 489.881 759.637C490.855 759.457 491.853 759.353 492.839 759.302C493.826 759.243 494.787 759.22 495.734 759.101C496.68 758.989 497.621 758.802 498.557 758.584C500.439 758.138 502.293 757.616 504.014 756.816C504.879 756.418 505.752 755.957 506.703 755.533C507.649 755.105 508.634 754.744 509.616 754.442C511.582 753.869 513.536 753.408 515.616 753.218C516.65 753.121 517.698 753.119 518.658 753.128C519.622 753.133 520.519 753.105 521.434 752.999C522.346 752.889 523.267 752.74 524.195 752.546C525.104 752.349 525.983 752.131 526.817 751.806C527.661 751.493 528.451 751.11 529.299 750.63C530.144 750.163 531.111 749.588 532.198 749.205C533.278 748.817 534.391 748.624 535.451 748.551C535.991 748.491 536.506 748.509 537.033 748.488C537.574 748.505 538.111 748.509 538.672 748.589C539.774 748.724 540.982 749.075 542.009 749.685C543.04 750.29 543.809 750.928 544.556 751.379C545.305 751.844 546.089 752.19 546.941 752.455C547.785 752.717 548.734 752.942 549.609 753.084C550.502 753.235 551.365 753.26 552.338 753.261C553.321 753.264 554.414 753.303 555.446 753.486C556.485 753.659 557.475 753.914 558.457 754.218C559.438 754.521 560.429 754.883 561.376 755.376C562.333 755.86 563.185 756.452 564.007 756.914C564.831 757.386 565.689 757.764 566.592 758.087C567.491 758.413 568.418 758.703 569.345 758.924C570.275 759.147 571.206 759.26 572.17 759.324C573.133 759.381 574.144 759.404 575.126 759.585C576.108 759.768 577.065 760.034 578 760.366C577.025 760.238 576.053 760.125 575.086 760.128C574.12 760.105 573.171 760.226 572.182 760.32C570.176 760.534 568.14 760.234 566.179 759.793C565.191 759.561 564.195 759.225 563.24 758.796C562.279 758.367 561.424 757.886 560.566 757.557C559.705 757.22 558.82 756.952 557.902 756.741C556.986 756.526 556.054 756.358 555.151 756.275C554.242 756.183 553.374 756.213 552.404 756.277C551.424 756.339 550.326 756.358 549.278 756.235C548.212 756.115 547.235 755.94 546.187 755.653C545.148 755.372 544.089 754.953 543.114 754.391C542.127 753.835 541.308 753.182 540.596 752.801C539.885 752.404 539.165 752.215 538.327 752.123C537.917 752.068 537.475 752.067 537.038 752.055C536.59 752.079 536.125 752.064 535.692 752.119C534.802 752.186 533.97 752.346 533.189 752.63C532.405 752.896 531.633 753.338 530.728 753.835C529.829 754.331 528.826 754.827 527.807 755.179C526.788 755.548 525.75 755.782 524.737 755.977C523.74 756.163 522.722 756.311 521.687 756.391C520.654 756.475 519.593 756.468 518.603 756.425C517.609 756.388 516.7 756.334 515.782 756.376C513.957 756.461 512.049 756.767 510.206 757.161C509.288 757.375 508.396 757.633 507.508 757.96C506.624 758.283 505.704 758.695 504.727 759.026C502.768 759.707 500.775 760.072 498.8 760.32C497.804 760.424 496.8 760.495 495.794 760.487C494.788 760.482 493.792 760.395 492.825 760.293C490.898 760.083 488.96 760.168 487 760.361Z" fill="#509FA6"/>
<path fill-rule="evenodd" clip-rule="evenodd" d="M532 883.358C532.947 883.078 533.905 882.828 534.881 882.638C535.855 882.458 536.853 882.358 537.839 882.298C538.826 882.238 539.787 882.218 540.734 882.098C541.68 881.988 542.62 881.798 543.557 881.588C545.439 881.138 547.293 880.618 549.014 879.818C549.879 879.418 550.752 878.958 551.703 878.528C552.649 878.108 553.634 877.748 554.616 877.442C556.582 876.869 558.536 876.408 560.616 876.218C561.65 876.121 562.697 876.12 563.658 876.128C564.622 876.133 565.519 876.105 566.434 875.999C567.346 875.889 568.267 875.74 569.194 875.546C570.103 875.35 570.982 875.131 571.817 874.806C572.661 874.493 573.451 874.11 574.299 873.631C575.144 873.163 576.111 872.589 577.198 872.205C578.278 871.818 579.391 871.625 580.451 871.552C580.99 871.491 581.506 871.509 582.033 871.488C582.574 871.505 583.111 871.509 583.672 871.59C584.773 871.725 585.982 872.076 587.009 872.685C588.04 873.291 588.809 873.928 589.555 874.379C590.305 874.845 591.089 875.191 591.941 875.455C592.784 875.718 593.734 875.943 594.608 876.084C595.502 876.236 596.364 876.26 597.338 876.261C598.321 876.264 599.414 876.304 600.446 876.487C601.485 876.659 602.475 876.914 603.457 877.218C604.438 877.518 605.429 877.878 606.376 878.378C607.333 878.858 608.185 879.448 609.007 879.918C609.831 880.388 610.689 880.768 611.591 881.088C612.491 881.418 613.418 881.708 614.345 881.928C615.275 882.148 616.206 882.258 617.17 882.328C618.133 882.378 619.144 882.408 620.126 882.588C621.108 882.768 622.065 883.038 623 883.368C622.025 883.238 621.053 883.128 620.086 883.128C619.119 883.108 618.171 883.228 617.182 883.318C615.176 883.538 613.14 883.238 611.179 882.798C610.191 882.558 609.195 882.228 608.24 881.798C607.279 881.368 606.424 880.888 605.566 880.558C604.705 880.218 603.82 879.958 602.902 879.738C601.985 879.528 601.054 879.358 600.151 879.278C599.242 879.188 598.374 879.218 597.404 879.278C596.424 879.338 595.325 879.358 594.277 879.238C593.212 879.118 592.235 878.938 591.187 878.648C590.148 878.368 589.088 877.958 588.114 877.392C587.126 876.836 586.308 876.183 585.595 875.801C584.885 875.404 584.165 875.215 583.326 875.123C582.917 875.069 582.475 875.068 582.038 875.055C581.59 875.079 581.125 875.064 580.691 875.119C579.802 875.186 578.97 875.347 578.189 875.63C577.405 875.897 576.632 876.338 575.728 876.836C574.829 877.332 573.826 877.828 572.807 878.178C571.788 878.548 570.749 878.778 569.737 878.978C568.74 879.168 567.721 879.308 566.687 879.388C565.654 879.478 564.592 879.468 563.602 879.428C562.609 879.388 561.7 879.338 560.782 879.378C558.957 879.458 557.048 879.768 555.205 880.158C554.288 880.378 553.396 880.638 552.508 880.958C551.624 881.288 550.704 881.698 549.726 882.028C547.767 882.708 545.774 883.068 543.799 883.318C542.803 883.428 541.8 883.498 540.794 883.488C539.787 883.478 538.791 883.398 537.825 883.298C535.898 883.078 533.959 883.168 532 883.358Z" fill="#509FA6"/>
<path fill-rule="evenodd" clip-rule="evenodd" d="M703 825.361C703.947 825.075 704.905 824.827 705.881 824.636C706.855 824.458 707.853 824.354 708.839 824.301C709.826 824.242 710.787 824.22 711.734 824.102C712.68 823.989 713.62 823.803 714.557 823.583C716.439 823.138 718.293 822.615 720.014 821.816C720.879 821.418 721.752 820.958 722.703 820.532C723.649 820.106 724.634 819.743 725.616 819.442C727.582 818.869 729.536 818.408 731.616 818.218C732.65 818.121 733.697 818.12 734.658 818.127C735.622 818.133 736.519 818.105 737.434 817.998C738.346 817.888 739.267 817.74 740.194 817.545C741.104 817.349 741.982 817.13 742.817 816.806C743.661 816.493 744.451 816.109 745.299 815.631C746.144 815.163 747.111 814.589 748.198 814.205C749.278 813.818 750.391 813.625 751.451 813.551C751.991 813.491 752.506 813.508 753.033 813.488C753.574 813.505 754.111 813.508 754.672 813.59C755.773 813.725 756.982 814.076 758.009 814.685C759.04 815.291 759.809 815.928 760.556 816.379C761.305 816.845 762.089 817.191 762.941 817.455C763.784 817.718 764.734 817.943 765.608 818.084C766.502 818.236 767.365 818.259 768.338 818.261C769.321 818.264 770.414 818.304 771.446 818.487C772.485 818.659 773.475 818.914 774.457 819.218C775.438 819.521 776.429 819.883 777.376 820.377C778.333 820.86 779.185 821.452 780.007 821.915C780.831 822.387 781.689 822.764 782.591 823.087C783.491 823.413 784.418 823.704 785.345 823.924C786.275 824.147 787.206 824.26 788.17 824.324C789.133 824.381 790.144 824.404 791.126 824.585C792.108 824.768 793.065 825.034 794 825.367C793.025 825.238 792.053 825.125 791.086 825.128C790.119 825.105 789.171 825.227 788.182 825.32C786.176 825.534 784.14 825.234 782.179 824.794C781.191 824.56 780.195 824.226 779.24 823.797C778.279 823.367 777.424 822.887 776.566 822.557C775.705 822.22 774.82 821.953 773.902 821.741C772.985 821.526 772.054 821.359 771.151 821.275C770.242 821.182 769.374 821.213 768.404 821.278C767.424 821.339 766.325 821.358 765.278 821.235C764.212 821.115 763.235 820.941 762.187 820.653C761.148 820.373 760.088 819.953 759.114 819.392C758.126 818.836 757.308 818.183 756.596 817.801C755.885 817.404 755.165 817.215 754.326 817.123C753.917 817.069 753.475 817.068 753.038 817.055C752.59 817.078 752.125 817.063 751.692 817.119C750.802 817.186 749.97 817.347 749.189 817.63C748.405 817.897 747.632 818.338 746.728 818.835C745.829 819.332 744.826 819.827 743.807 820.179C742.788 820.549 741.75 820.782 740.737 820.977C739.74 821.163 738.721 821.312 737.687 821.391C736.654 821.475 735.593 821.468 734.602 821.426C733.609 821.388 732.7 821.334 731.782 821.375C729.957 821.461 728.049 821.766 726.205 822.161C725.288 822.375 724.396 822.633 723.508 822.961C722.624 823.283 721.704 823.696 720.727 824.026C718.767 824.708 716.774 825.072 714.8 825.32C713.804 825.425 712.8 825.495 711.794 825.487C710.787 825.482 709.791 825.395 708.825 825.294C706.898 825.083 704.959 825.167 703 825.361Z" fill="#509FA6"/>
<path opacity="0.1" fill-rule="evenodd" clip-rule="evenodd" d="M324.005 811.14C316.879 812.089 309.868 813.142 302.43 813.668C299.138 813.901 295.934 814.051 292.683 814.344C287.357 814.825 282.059 814.374 276.635 814.374C270.167 814.374 267.457 812.82 259.265 812.716C251.071 812.613 241.669 814.439 233.76 814.894C224.504 815.426 218.08 814.894 209.565 816.731C201.837 818.397 196.172 817.624 187.882 817.399C176.768 817.096 172.106 822.457 183.886 823.543C193.215 824.404 203.684 823.513 212.939 824.606C218.006 825.203 222.058 826.871 227.176 827.489C233.954 828.305 241.847 829.678 248.852 829.427C261.724 828.965 273.86 827.245 286.776 828.133C299.324 828.995 310.373 830.857 323.427 830.193C330.37 829.839 337.044 828.735 343.875 828.129C349.188 827.659 354.648 827.905 359.956 827.371C366.075 826.758 372.001 825.564 378.483 825.375C385.263 825.179 388.09 826.695 398.205 826.892C404.438 827.013 416.187 826.369 422.238 826.463C432.38 826.62 436.649 828.133 446.738 828.433C459.148 828.801 471.053 828.761 483.217 827.701C488.235 827.263 493.387 827.589 498.406 827.058C503.783 826.49 508.973 825.419 514.498 825.05C518.974 824.75 547.694 823.95 541.826 819.651C539.258 817.769 529.86 817.857 525.432 817.599C511.452 816.786 515.396 815.129 503.496 814.636C491.467 814.137 480.618 812.716 470.344 812.226C461.156 811.788 450.175 812.463 440.91 812.716C434.047 812.904 418.758 810.568 411.909 810.875C398.586 811.475 395.5 812.502 384.121 812.716C375.093 812.886 367.789 812.002 359.143 811.342C349.504 810.608 339.117 809.302 329.456 810.448C327.625 810.665 325.812 810.899 324.005 811.14Z" fill="#020202"/>
<path fill-rule="evenodd" clip-rule="evenodd" d="M465.992 684.246H257.577C255.319 684.246 253.3 682.842 252.513 680.725L245.766 662.583C244.453 659.053 247.064 655.296 250.831 655.296H473.966C477.866 655.296 480.481 659.303 478.912 662.873L470.938 681.017C470.076 682.978 468.136 684.246 465.992 684.246Z" fill="#A4DDD8"/>
<path fill-rule="evenodd" clip-rule="evenodd" d="M428.766 704.909H295.597C289.88 704.909 284.561 701.984 281.499 697.156L273.309 684.247H451.993L442.411 697.835C439.283 702.27 434.194 704.909 428.766 704.909Z" fill="#8BC9C1"/>
<mask id="mask0_25_784" style="mask-type:alpha" maskUnits="userSpaceOnUse" x="232" y="458" width="261" height="198">
<path fill-rule="evenodd" clip-rule="evenodd" d="M232.471 458.375H492.68V655.296H232.471V458.375Z" fill="white"/>
</mask>
<g mask="url(#mask0_25_784)">
<path fill-rule="evenodd" clip-rule="evenodd" d="M474.227 655.296C485.941 635.766 492.68 612.911 492.68 588.48C492.68 516.625 434.43 458.375 362.576 458.375C290.721 458.375 232.471 516.625 232.471 588.48C232.471 612.911 239.21 635.766 250.924 655.296H474.227Z" fill="#DFEFED"/>
</g>
<path fill-rule="evenodd" clip-rule="evenodd" d="M252.362 820.165H206.352C206.352 808.366 216.652 798.802 229.357 798.802C242.063 798.802 252.362 808.366 252.362 820.165Z" fill="#8BC9C1"/>
<path fill-rule="evenodd" clip-rule="evenodd" d="M470.51 820.165H516.52C516.52 808.366 506.22 798.802 493.515 798.802C480.81 798.802 470.51 808.366 470.51 820.165Z" fill="#8BC9C1"/>
<path fill-rule="evenodd" clip-rule="evenodd" d="M339.645 820.165H385.655C385.655 808.366 375.355 798.802 362.65 798.802C349.945 798.802 339.645 808.366 339.645 820.165Z" fill="#8BC9C1"/>
<path fill-rule="evenodd" clip-rule="evenodd" d="M399.078 529.389C399.078 549.549 382.735 565.892 362.575 565.892C342.415 565.892 326.072 549.549 326.072 529.389C326.072 509.229 342.415 492.885 362.575 492.885C382.735 492.885 399.078 509.229 399.078 529.389Z" fill="#A4DDD8"/>
<path fill-rule="evenodd" clip-rule="evenodd" d="M392.841 529.389C392.841 546.104 379.291 559.655 362.575 559.655C345.86 559.655 332.309 546.104 332.309 529.389C332.309 512.673 345.86 499.122 362.575 499.122C379.291 499.122 392.841 512.673 392.841 529.389Z" fill="#8BC9C1"/>
<path fill-rule="evenodd" clip-rule="evenodd" d="M229.356 798.802C231.313 798.802 233.211 799.031 235.026 799.457L268.568 684.246H260.795L227.332 798.889C227.999 798.835 228.673 798.802 229.356 798.802Z" fill="#DFEFED"/>
<path fill-rule="evenodd" clip-rule="evenodd" d="M493.515 798.802C494.198 798.802 494.871 798.834 495.539 798.889L462.076 684.246H454.303L487.846 799.457C489.66 799.031 491.558 798.802 493.515 798.802Z" fill="#DFEFED"/>
<path fill-rule="evenodd" clip-rule="evenodd" d="M362.65 798.802C363.99 798.802 365.3 798.914 366.577 799.118L366.49 684.246H358.717V799.119C359.996 798.914 361.308 798.802 362.65 798.802Z" fill="#DFEFED"/>
<path fill-rule="evenodd" clip-rule="evenodd" d="M274.06 493.137C272.669 492.976 271.257 492.885 269.823 492.885C249.664 492.885 233.32 509.229 233.32 529.389C233.32 536.404 235.303 542.953 238.733 548.517C245.641 527.094 257.951 508.1 274.06 493.137Z" fill="#A4DDD8"/>
<path fill-rule="evenodd" clip-rule="evenodd" d="M486.416 548.517C489.847 542.954 491.83 536.404 491.83 529.389C491.83 509.229 475.486 492.885 455.326 492.885C453.893 492.885 452.48 492.976 451.09 493.137C467.199 508.1 479.509 527.094 486.416 548.517Z" fill="#A4DDD8"/>
<path fill-rule="evenodd" clip-rule="evenodd" d="M489.558 617.913H418.07C417.804 617.913 417.55 617.808 417.363 617.62L394.589 594.846H332.647L311.492 616.002C311.304 616.189 311.05 616.295 310.785 616.295H235.24C234.687 616.295 234.24 615.848 234.24 615.295C234.24 614.742 234.687 614.295 235.24 614.295H310.371L331.526 593.139C331.713 592.951 331.967 592.846 332.233 592.846H395.003C395.269 592.846 395.523 592.951 395.71 593.139L418.484 615.913H489.558C490.111 615.913 490.558 616.36 490.558 616.913C490.558 617.466 490.111 617.913 489.558 617.913Z" fill="#A4DDD8"/>
<path fill-rule="evenodd" clip-rule="evenodd" d="M235.24 604.032C234.71 604.032 234.2 603.832 233.82 603.452C233.73 603.352 233.65 603.252 233.57 603.142C233.5 603.042 233.44 602.923 233.39 602.803C233.34 602.682 233.3 602.562 233.28 602.432C233.25 602.303 233.24 602.173 233.24 602.042C233.24 601.912 233.25 601.772 233.28 601.642C233.31 601.522 233.34 601.392 233.39 601.272C233.44 601.152 233.5 601.032 233.58 600.923C233.65 600.812 233.73 600.713 233.82 600.622C233.92 600.532 234.02 600.442 234.13 600.372C234.24 600.303 234.35 600.242 234.47 600.192C234.6 600.142 234.72 600.102 234.85 600.072C235.11 600.022 235.37 600.022 235.63 600.072C235.761 600.102 235.88 600.142 236 600.192C236.12 600.242 236.24 600.303 236.35 600.372C236.46 600.442 236.56 600.532 236.65 600.622C236.74 600.713 236.83 600.812 236.9 600.923C236.97 601.032 237.04 601.152 237.09 601.272C237.14 601.392 237.17 601.522 237.2 601.642C237.23 601.772 237.24 601.912 237.24 602.042C237.24 602.173 237.23 602.303 237.2 602.432C237.18 602.562 237.14 602.682 237.09 602.803C237.04 602.923 236.98 603.042 236.9 603.142C236.83 603.252 236.75 603.352 236.65 603.452C236.27 603.832 235.77 604.032 235.24 604.032Z" fill="#A4DDD8"/>
<path fill-rule="evenodd" clip-rule="evenodd" d="M331.089 580.582C331.089 579.482 331.98 578.593 333.089 578.593C334.19 578.593 335.089 579.482 335.089 580.582C335.089 581.692 334.19 582.593 333.089 582.593C331.98 582.593 331.089 581.692 331.089 580.582ZM342.94 580.582C342.94 579.482 343.839 578.593 344.949 578.593C346.049 578.593 346.949 579.482 346.949 580.582C346.949 581.692 346.049 582.593 344.949 582.593C343.839 582.593 342.94 581.692 342.94 580.582ZM354.799 580.582C354.799 579.482 355.699 578.593 356.799 578.593C357.909 578.593 358.81 579.482 358.81 580.582C358.81 581.692 357.909 582.593 356.799 582.593C355.699 582.593 354.799 581.692 354.799 580.582ZM366.659 580.582C366.659 579.482 367.56 578.593 368.659 578.593C369.77 578.593 370.659 579.482 370.659 580.582C370.659 581.692 369.77 582.593 368.659 582.593C367.56 582.593 366.659 581.692 366.659 580.582ZM378.52 580.582C378.52 579.482 379.419 578.593 380.52 578.593C381.629 578.593 382.52 579.482 382.52 580.582C382.52 581.692 381.629 582.593 380.52 582.593C379.419 582.593 378.52 581.692 378.52 580.582ZM390.379 580.582C390.379 579.482 391.279 578.593 392.379 578.593C393.48 578.593 394.379 579.482 394.379 580.582C394.379 581.692 393.48 582.593 392.379 582.593C391.279 582.593 390.379 581.692 390.379 580.582ZM400.119 588.532C399.339 587.752 399.339 586.482 400.119 585.702C400.9 584.923 402.169 584.923 402.949 585.702C403.73 586.482 403.73 587.752 402.949 588.532C402.56 588.923 402.049 589.122 401.529 589.122C401.02 589.122 400.51 588.923 400.119 588.532ZM323.029 589.782C322.249 589.002 322.249 587.732 323.029 586.952C323.819 586.173 325.079 586.173 325.869 586.952C326.64 587.732 326.64 589.002 325.869 589.782C325.47 590.173 324.959 590.372 324.449 590.372C323.94 590.372 323.43 590.173 323.029 589.782ZM408.51 596.923C407.72 596.133 407.72 594.872 408.51 594.093C409.289 593.312 410.549 593.312 411.329 594.093C412.11 594.872 412.11 596.133 411.329 596.923C410.94 597.312 410.43 597.502 409.919 597.502C409.409 597.502 408.9 597.312 408.51 596.923ZM314.65 598.173C313.869 597.393 313.869 596.122 314.65 595.343C315.43 594.562 316.699 594.562 317.48 595.343C318.26 596.122 318.26 597.393 317.48 598.173C317.089 598.562 316.579 598.752 316.06 598.752C315.549 598.752 315.039 598.562 314.65 598.173ZM245.1 602.042C245.1 600.933 245.989 600.032 247.1 600.032C248.199 600.032 249.1 600.933 249.1 602.042C249.1 603.143 248.199 604.042 247.1 604.042C245.989 604.042 245.1 603.143 245.1 602.042ZM256.959 602.042C256.959 600.933 257.85 600.032 258.959 600.032C260.06 600.032 260.959 600.933 260.959 602.042C260.959 603.143 260.06 604.042 258.959 604.042C257.85 604.042 256.959 603.143 256.959 602.042ZM268.819 602.042C268.819 600.933 269.709 600.032 270.819 600.032C271.919 600.032 272.819 600.933 272.819 602.042C272.819 603.143 271.919 604.042 270.819 604.042C269.709 604.042 268.819 603.143 268.819 602.042ZM280.68 602.042C280.68 600.933 281.569 600.032 282.68 600.032C283.779 600.032 284.669 600.933 284.669 602.042C284.669 603.143 283.779 604.042 282.68 604.042C281.569 604.042 280.68 603.143 280.68 602.042ZM292.539 602.042C292.539 600.933 293.43 600.032 294.529 600.032C295.64 600.032 296.529 600.933 296.529 602.042C296.529 603.143 295.64 604.042 294.529 604.042C293.43 604.042 292.539 603.143 292.539 602.042ZM304.39 602.042C304.39 600.933 305.289 600.032 306.39 600.032C307.499 600.032 308.39 600.933 308.39 602.042C308.39 603.143 307.499 604.042 306.39 604.042C305.289 604.042 304.39 603.143 304.39 602.042ZM416.4 603.652C416.4 602.553 417.299 601.652 418.409 601.652C419.51 601.652 420.4 602.553 420.4 603.652C420.4 604.763 419.51 605.652 418.409 605.652C417.299 605.652 416.4 604.763 416.4 603.652ZM428.26 603.652C428.26 602.553 429.159 601.652 430.26 601.652C431.369 601.652 432.26 602.553 432.26 603.652C432.26 604.763 431.369 605.652 430.26 605.652C429.159 605.652 428.26 604.763 428.26 603.652ZM440.119 603.652C440.119 602.553 441.02 601.652 442.119 601.652C443.22 601.652 444.119 602.553 444.119 603.652C444.119 604.763 443.22 605.652 442.119 605.652C441.02 605.652 440.119 604.763 440.119 603.652ZM451.98 603.652C451.98 602.553 452.879 601.652 453.98 601.652C455.089 601.652 455.98 602.553 455.98 603.652C455.98 604.763 455.089 605.652 453.98 605.652C452.879 605.652 451.98 604.763 451.98 603.652ZM463.839 603.652C463.839 602.553 464.739 601.652 465.839 601.652C466.94 601.652 467.839 602.553 467.839 603.652C467.839 604.763 466.94 605.652 465.839 605.652C464.739 605.652 463.839 604.763 463.839 603.652ZM475.699 603.652C475.699 602.553 476.6 601.652 477.699 601.652C478.799 601.652 479.699 602.553 479.699 603.652C479.699 604.763 478.799 605.652 477.699 605.652C476.6 605.652 475.699 604.763 475.699 603.652Z" fill="#A4DDD8"/>
<path fill-rule="evenodd" clip-rule="evenodd" d="M489.561 605.653C489.29 605.653 489.031 605.603 488.79 605.503C488.55 605.403 488.331 605.253 488.141 605.063C487.96 604.883 487.811 604.663 487.71 604.424C487.611 604.183 487.561 603.924 487.561 603.653C487.561 603.523 487.571 603.393 487.601 603.263C487.621 603.133 487.661 603.013 487.71 602.893C487.761 602.773 487.821 602.653 487.891 602.543C487.971 602.433 488.05 602.333 488.141 602.243C488.241 602.153 488.34 602.063 488.451 601.993C488.561 601.924 488.67 601.863 488.79 601.813C488.911 601.763 489.04 601.723 489.17 601.693C489.42 601.643 489.691 601.643 489.951 601.693C490.081 601.723 490.201 601.763 490.321 601.813C490.441 601.863 490.561 601.924 490.67 601.993C490.781 602.063 490.88 602.153 490.971 602.243C491.061 602.333 491.151 602.433 491.221 602.543C491.29 602.653 491.351 602.773 491.401 602.893C491.451 603.013 491.491 603.133 491.521 603.263C491.54 603.393 491.561 603.523 491.561 603.653C491.561 603.924 491.511 604.183 491.411 604.424C491.311 604.663 491.161 604.883 490.971 605.063C490.781 605.253 490.561 605.403 490.321 605.503C490.081 605.603 489.821 605.653 489.561 605.653Z" fill="#A4DDD8"/>
<path fill-rule="evenodd" clip-rule="evenodd" d="M239.039 631.403C238.779 631.403 238.519 631.353 238.279 631.253C238.039 631.153 237.819 631.003 237.629 630.813C237.539 630.723 237.449 630.623 237.379 630.513C237.31 630.403 237.239 630.293 237.189 630.174C237.14 630.053 237.109 629.924 237.079 629.793C237.06 629.663 237.039 629.533 237.039 629.403C237.039 629.273 237.06 629.143 237.079 629.013C237.109 628.883 237.149 628.763 237.199 628.633C237.249 628.513 237.31 628.403 237.379 628.293C237.449 628.183 237.539 628.083 237.629 627.993C237.72 627.893 237.819 627.813 237.93 627.743C238.039 627.674 238.159 627.603 238.279 627.553C238.399 627.503 238.519 627.473 238.649 627.443C238.909 627.393 239.18 627.393 239.43 627.443C239.56 627.473 239.689 627.503 239.81 627.553C239.93 627.603 240.039 627.674 240.149 627.743C240.26 627.813 240.359 627.893 240.449 627.993C240.549 628.083 240.629 628.183 240.699 628.293C240.779 628.403 240.839 628.513 240.89 628.633C240.939 628.763 240.979 628.883 240.999 629.013C241.029 629.143 241.039 629.273 241.039 629.403C241.039 629.533 241.029 629.663 240.999 629.793C240.979 629.924 240.939 630.053 240.89 630.174C240.839 630.293 240.779 630.403 240.709 630.513C240.629 630.623 240.549 630.723 240.449 630.813C240.359 630.913 240.26 630.993 240.149 631.063C240.039 631.143 239.93 631.203 239.81 631.253C239.689 631.303 239.56 631.343 239.439 631.363C239.31 631.393 239.18 631.403 239.039 631.403Z" fill="#A4DDD8"/>
<path fill-rule="evenodd" clip-rule="evenodd" d="M249 629.403C249 628.303 249.9 627.403 251 627.403C252.101 627.403 253 628.303 253 629.403C253 630.513 252.101 631.403 251 631.403C249.9 631.403 249 630.513 249 629.403ZM260.96 629.403C260.96 628.303 261.851 627.403 262.96 627.403C264.061 627.403 264.96 628.303 264.96 629.403C264.96 630.513 264.061 631.403 262.96 631.403C261.851 631.403 260.96 630.513 260.96 629.403ZM272.91 629.403C272.91 628.303 273.811 627.403 274.91 627.403C276.021 627.403 276.92 628.303 276.92 629.403C276.92 630.513 276.021 631.403 274.91 631.403C273.811 631.403 272.91 630.513 272.91 629.403ZM284.87 629.403C284.87 628.303 285.771 627.403 286.87 627.403C287.98 627.403 288.87 628.303 288.87 629.403C288.87 630.513 287.98 631.403 286.87 631.403C285.771 631.403 284.87 630.513 284.87 629.403ZM296.83 629.403C296.83 628.303 297.721 627.403 298.83 627.403C299.931 627.403 300.83 628.303 300.83 629.403C300.83 630.513 299.931 631.403 298.83 631.403C297.721 631.403 296.83 630.513 296.83 629.403Z" fill="#A4DDD8"/>
<path fill-rule="evenodd" clip-rule="evenodd" d="M310.789 631.402C310.249 631.402 309.749 631.192 309.369 630.812C308.989 630.442 308.779 629.932 308.779 629.402C308.779 628.872 308.999 628.362 309.369 627.992C309.829 627.522 310.529 627.312 311.18 627.442C311.299 627.463 311.43 627.502 311.549 627.552C311.669 627.602 311.789 627.662 311.89 627.742C311.999 627.812 312.109 627.892 312.199 627.992C312.289 628.082 312.369 628.182 312.449 628.292C312.519 628.402 312.579 628.512 312.629 628.632C312.68 628.762 312.72 628.882 312.749 629.012C312.769 629.142 312.789 629.272 312.789 629.402C312.789 629.932 312.579 630.442 312.199 630.812C312.109 630.912 311.999 630.992 311.89 631.072C311.789 631.142 311.669 631.202 311.549 631.252C311.43 631.302 311.31 631.342 311.18 631.362C311.049 631.382 310.919 631.402 310.789 631.402Z" fill="#A4DDD8"/>
<path fill-rule="evenodd" clip-rule="evenodd" d="M323.668 616.513C322.889 615.733 322.889 614.473 323.668 613.693C324.448 612.903 325.719 612.903 326.498 613.693C327.278 614.473 327.278 615.733 326.498 616.513C326.108 616.903 325.599 617.103 325.078 617.103C324.568 617.103 324.059 616.903 323.668 616.513ZM316.519 623.662C315.738 622.883 315.738 621.622 316.519 620.843C317.298 620.053 318.568 620.053 319.349 620.843C320.128 621.622 320.128 622.883 319.349 623.662C318.958 624.053 318.448 624.252 317.929 624.252C317.418 624.252 316.908 624.053 316.519 623.662Z" fill="#A4DDD8"/>
<path fill-rule="evenodd" clip-rule="evenodd" d="M332.23 609.953C331.97 609.953 331.709 609.903 331.47 609.804C331.23 609.703 331.01 609.554 330.82 609.373C330.73 609.273 330.64 609.174 330.57 609.063C330.5 608.953 330.43 608.844 330.379 608.724C330.33 608.603 330.299 608.474 330.27 608.344C330.25 608.224 330.23 608.083 330.23 607.953C330.23 607.424 330.45 606.913 330.82 606.543C330.91 606.443 331.01 606.363 331.12 606.293C331.23 606.224 331.35 606.153 331.47 606.103C331.589 606.054 331.72 606.023 331.839 605.993C332.1 605.943 332.37 605.943 332.629 605.993C332.75 606.023 332.879 606.054 333 606.103C333.12 606.153 333.24 606.224 333.339 606.293C333.45 606.363 333.56 606.443 333.65 606.543C334.02 606.913 334.23 607.424 334.23 607.953C334.23 608.083 334.22 608.224 334.2 608.344C334.169 608.474 334.129 608.603 334.08 608.724C334.03 608.844 333.97 608.953 333.9 609.063C333.82 609.174 333.74 609.273 333.65 609.373C333.459 609.554 333.24 609.703 333 609.804C332.76 609.903 332.5 609.953 332.23 609.953Z" fill="#A4DDD8"/>
<path fill-rule="evenodd" clip-rule="evenodd" d="M341.869 607.952C341.869 606.843 342.76 605.952 343.869 605.952C344.97 605.952 345.869 606.843 345.869 607.952C345.869 609.053 344.97 609.952 343.869 609.952C342.76 609.952 341.869 609.053 341.869 607.952ZM353.499 607.952C353.499 606.843 354.399 605.952 355.499 605.952C356.599 605.952 357.499 606.843 357.499 607.952C357.499 609.053 356.599 609.952 355.499 609.952C354.399 609.952 353.499 609.053 353.499 607.952ZM365.14 607.952C365.14 606.843 366.029 605.952 367.14 605.952C368.239 605.952 369.14 606.843 369.14 607.952C369.14 609.053 368.239 609.952 367.14 609.952C366.029 609.952 365.14 609.053 365.14 607.952ZM376.769 607.952C376.769 606.843 377.669 605.952 378.769 605.952C379.879 605.952 380.769 606.843 380.769 607.952C380.769 609.053 379.879 609.952 378.769 609.952C377.669 609.952 376.769 609.053 376.769 607.952ZM388.399 607.952C388.399 606.843 389.299 605.952 390.409 605.952C391.51 605.952 392.399 606.843 392.399 607.952C392.399 609.053 391.51 609.952 390.409 609.952C389.299 609.952 388.399 609.053 388.399 607.952ZM398.559 614.343C397.779 613.562 397.779 612.292 398.559 611.513C399.349 610.732 400.609 610.732 401.39 611.513C402.169 612.292 402.169 613.562 401.39 614.343C400.999 614.732 400.489 614.932 399.979 614.932C399.47 614.932 398.949 614.732 398.559 614.343ZM406.789 622.572C406.01 621.792 406.01 620.522 406.789 619.742C407.569 618.963 408.839 618.963 409.619 619.742C410.399 620.522 410.399 621.792 409.619 622.572C409.229 622.963 408.72 623.152 408.199 623.152C407.689 623.152 407.18 622.963 406.789 622.572ZM415.019 630.792C414.229 630.013 414.229 628.752 415.019 627.963C415.799 627.182 417.069 627.182 417.849 627.963C418.629 628.752 418.629 630.013 417.849 630.792C417.459 631.182 416.939 631.383 416.43 631.383C415.919 631.383 415.409 631.182 415.019 630.792ZM425.39 631.022C425.39 629.912 426.279 629.022 427.39 629.022C428.489 629.022 429.39 629.912 429.39 631.022C429.39 632.122 428.489 633.022 427.39 633.022C426.279 633.022 425.39 632.122 425.39 631.022ZM437.019 631.022C437.019 629.912 437.919 629.022 439.019 629.022C440.119 629.022 441.019 629.912 441.019 631.022C441.019 632.122 440.119 633.022 439.019 633.022C437.919 633.022 437.019 632.122 437.019 631.022ZM448.659 631.022C448.659 629.912 449.549 629.022 450.649 629.022C451.76 629.022 452.659 629.912 452.659 631.022C452.659 632.122 451.76 633.022 450.649 633.022C449.549 633.022 448.659 632.122 448.659 631.022ZM460.289 631.022C460.289 629.912 461.18 629.022 462.289 629.022C463.399 629.022 464.289 629.912 464.289 631.022C464.289 632.122 463.399 633.022 462.289 633.022C461.18 633.022 460.289 632.122 460.289 631.022ZM471.919 631.022C471.919 629.912 472.819 629.022 473.93 629.022C475.029 629.022 475.919 629.912 475.919 631.022C475.919 632.122 475.029 633.022 473.93 633.022C472.819 633.022 471.919 632.122 471.919 631.022Z" fill="#A4DDD8"/>
<path fill-rule="evenodd" clip-rule="evenodd" d="M485.561 633.023C485.29 633.023 485.04 632.973 484.79 632.873C484.55 632.773 484.331 632.623 484.141 632.433C483.96 632.243 483.811 632.023 483.71 631.783C483.611 631.543 483.561 631.283 483.561 631.023C483.561 630.893 483.571 630.763 483.601 630.633C483.621 630.502 483.661 630.373 483.71 630.252C483.761 630.133 483.821 630.023 483.901 629.913C483.971 629.803 484.05 629.703 484.141 629.603C484.241 629.513 484.34 629.433 484.451 629.363C484.561 629.283 484.67 629.223 484.79 629.173C484.92 629.123 485.04 629.083 485.17 629.063C485.431 629.002 485.691 629.002 485.951 629.063C486.081 629.083 486.201 629.123 486.321 629.173C486.441 629.223 486.561 629.283 486.67 629.363C486.781 629.433 486.88 629.513 486.971 629.603C487.061 629.703 487.151 629.803 487.221 629.913C487.29 630.023 487.361 630.133 487.411 630.252C487.46 630.373 487.491 630.502 487.521 630.633C487.55 630.763 487.561 630.893 487.561 631.023C487.561 631.283 487.511 631.543 487.411 631.783C487.311 632.023 487.161 632.243 486.971 632.433C486.88 632.533 486.781 632.613 486.67 632.683C486.561 632.752 486.441 632.823 486.321 632.873C486.21 632.923 486.081 632.953 485.951 632.983C485.821 633.002 485.691 633.023 485.561 633.023Z" fill="#A4DDD8"/>
<path fill-rule="evenodd" clip-rule="evenodd" d="M326.434 525.281H249.4C248.847 525.281 248.4 524.834 248.4 524.281C248.4 523.728 248.847 523.281 249.4 523.281H326.434C326.987 523.281 327.434 523.728 327.434 524.281C327.434 524.834 326.987 525.281 326.434 525.281Z" fill="#A4DDD8"/>
<path fill-rule="evenodd" clip-rule="evenodd" d="M476.111 525.281H399.078C398.525 525.281 398.078 524.834 398.078 524.281C398.078 523.728 398.525 523.281 399.078 523.281H476.111C476.664 523.281 477.111 523.728 477.111 524.281C477.111 524.834 476.664 525.281 476.111 525.281Z" fill="#A4DDD8"/>
<path fill-rule="evenodd" clip-rule="evenodd" d="M252.43 518.262C252.43 517.152 253.329 516.262 254.43 516.262C255.539 516.262 256.44 517.152 256.44 518.262C256.44 519.362 255.539 520.262 254.43 520.262C253.329 520.262 252.43 519.362 252.43 518.262ZM264.43 518.262C264.43 517.152 265.329 516.262 266.43 516.262C267.539 516.262 268.43 517.152 268.43 518.262C268.43 519.362 267.539 520.262 266.43 520.262C265.329 520.262 264.43 519.362 264.43 518.262ZM276.43 518.262C276.43 517.152 277.329 516.262 278.44 516.262C279.539 516.262 280.43 517.152 280.43 518.262C280.43 519.362 279.539 520.262 278.44 520.262C277.329 520.262 276.43 519.362 276.43 518.262ZM288.43 518.262C288.43 517.152 289.329 516.262 290.43 516.262C291.539 516.262 292.43 517.152 292.43 518.262C292.43 519.362 291.539 520.262 290.43 520.262C289.329 520.262 288.43 519.362 288.43 518.262ZM300.44 518.262C300.44 517.152 301.329 516.262 302.43 516.262C303.539 516.262 304.43 517.152 304.43 518.262C304.43 519.362 303.539 520.262 302.43 520.262C301.329 520.262 300.44 519.362 300.44 518.262ZM312.43 518.262C312.43 517.152 313.329 516.262 314.43 516.262C315.539 516.262 316.43 517.152 316.43 518.262C316.43 519.362 315.539 520.262 314.43 520.262C313.329 520.262 312.43 519.362 312.43 518.262ZM324.43 518.262C324.43 517.152 325.329 516.262 326.43 516.262C327.539 516.262 328.43 517.152 328.43 518.262C328.43 519.362 327.539 520.262 326.43 520.262C325.329 520.262 324.43 519.362 324.43 518.262Z" fill="#A4DDD8"/>
<path fill-rule="evenodd" clip-rule="evenodd" d="M402.109 518.262C402.109 517.152 403.009 516.262 404.109 516.262C405.219 516.262 406.109 517.152 406.109 518.262C406.109 519.362 405.219 520.262 404.109 520.262C403.009 520.262 402.109 519.362 402.109 518.262ZM414.109 518.262C414.109 517.152 415.009 516.262 416.109 516.262C417.209 516.262 418.109 517.152 418.109 518.262C418.109 519.362 417.209 520.262 416.109 520.262C415.009 520.262 414.109 519.362 414.109 518.262ZM426.109 518.262C426.109 517.152 427.009 516.262 428.109 516.262C429.219 516.262 430.109 517.152 430.109 518.262C430.109 519.362 429.219 520.262 428.109 520.262C427.009 520.262 426.109 519.362 426.109 518.262ZM438.109 518.262C438.109 517.152 439.009 516.262 440.109 516.262C441.219 516.262 442.109 517.152 442.109 518.262C442.109 519.362 441.219 520.262 440.109 520.262C439.009 520.262 438.109 519.362 438.109 518.262ZM450.109 518.262C450.109 517.152 450.999 516.262 452.109 516.262C453.219 516.262 454.109 517.152 454.109 518.262C454.109 519.362 453.219 520.262 452.109 520.262C450.999 520.262 450.109 519.362 450.109 518.262ZM462.109 518.262C462.109 517.152 463.009 516.262 464.109 516.262C465.219 516.262 466.109 517.152 466.109 518.262C466.109 519.362 465.219 520.262 464.109 520.262C463.009 520.262 462.109 519.362 462.109 518.262ZM474.109 518.262C474.109 517.152 474.999 516.262 476.109 516.262C477.219 516.262 478.109 517.152 478.109 518.262C478.109 519.362 477.219 520.262 476.109 520.262C474.999 520.262 474.109 519.362 474.109 518.262Z" fill="#A4DDD8"/>
<path fill-rule="evenodd" clip-rule="evenodd" d="M252.43 532.172C252.43 531.071 253.329 530.172 254.43 530.172C255.539 530.172 256.44 531.071 256.44 532.172C256.44 533.281 255.539 534.172 254.43 534.172C253.329 534.172 252.43 533.281 252.43 532.172ZM264.43 532.172C264.43 531.071 265.329 530.172 266.43 530.172C267.539 530.172 268.43 531.071 268.43 532.172C268.43 533.281 267.539 534.172 266.43 534.172C265.329 534.172 264.43 533.281 264.43 532.172ZM276.43 532.172C276.43 531.071 277.329 530.172 278.44 530.172C279.539 530.172 280.43 531.071 280.43 532.172C280.43 533.281 279.539 534.172 278.44 534.172C277.329 534.172 276.43 533.281 276.43 532.172ZM288.43 532.172C288.43 531.071 289.329 530.172 290.43 530.172C291.539 530.172 292.43 531.071 292.43 532.172C292.43 533.281 291.539 534.172 290.43 534.172C289.329 534.172 288.43 533.281 288.43 532.172ZM300.44 532.172C300.44 531.071 301.329 530.172 302.43 530.172C303.539 530.172 304.43 531.071 304.43 532.172C304.43 533.281 303.539 534.172 302.43 534.172C301.329 534.172 300.44 533.281 300.44 532.172ZM312.43 532.172C312.43 531.071 313.329 530.172 314.43 530.172C315.539 530.172 316.43 531.071 316.43 532.172C316.43 533.281 315.539 534.172 314.43 534.172C313.329 534.172 312.43 533.281 312.43 532.172ZM324.43 532.172C324.43 531.071 325.329 530.172 326.43 530.172C327.539 530.172 328.43 531.071 328.43 532.172C328.43 533.281 327.539 534.172 326.43 534.172C325.329 534.172 324.43 533.281 324.43 532.172Z" fill="#A4DDD8"/>
<path fill-rule="evenodd" clip-rule="evenodd" d="M402.109 532.172C402.109 531.071 403.009 530.172 404.109 530.172C405.219 530.172 406.109 531.071 406.109 532.172C406.109 533.272 405.219 534.172 404.109 534.172C403.009 534.172 402.109 533.272 402.109 532.172ZM414.109 532.172C414.109 531.071 415.009 530.172 416.109 530.172C417.209 530.172 418.109 531.071 418.109 532.172C418.109 533.272 417.209 534.172 416.109 534.172C415.009 534.172 414.109 533.272 414.109 532.172ZM426.109 532.172C426.109 531.071 427.009 530.172 428.109 530.172C429.219 530.172 430.109 531.071 430.109 532.172C430.109 533.272 429.219 534.172 428.109 534.172C427.009 534.172 426.109 533.272 426.109 532.172ZM438.109 532.172C438.109 531.071 439.009 530.172 440.109 530.172C441.219 530.172 442.109 531.071 442.109 532.172C442.109 533.272 441.219 534.172 440.109 534.172C439.009 534.172 438.109 533.272 438.109 532.172ZM450.109 532.172C450.109 531.071 450.999 530.172 452.109 530.172C453.219 530.172 454.109 531.071 454.109 532.172C454.109 533.272 453.219 534.172 452.109 534.172C450.999 534.172 450.109 533.272 450.109 532.172ZM462.109 532.172C462.109 531.071 463.009 530.172 464.109 530.172C465.219 530.172 466.109 531.071 466.109 532.172C466.109 533.272 465.219 534.172 464.109 534.172C463.009 534.172 462.109 533.272 462.109 532.172ZM474.109 532.172C474.109 531.071 474.999 530.172 476.109 530.172C477.219 530.172 478.109 531.071 478.109 532.172C478.109 533.272 477.219 534.172 476.109 534.172C474.999 534.172 474.109 533.272 474.109 532.172Z" fill="#A4DDD8"/>
<path fill-rule="evenodd" clip-rule="evenodd" d="M520.805 93.2336C520.805 142.8 480.624 182.981 431.058 182.981C381.492 182.981 341.311 142.8 341.311 93.2336C341.311 43.6686 381.492 3.48755 431.058 3.48755C480.624 3.48755 520.805 43.6686 520.805 93.2336Z" fill="#F9CD6B"/>
<path fill-rule="evenodd" clip-rule="evenodd" d="M741.569 303.273C741.569 327.454 721.966 347.057 697.785 347.057C673.603 347.057 654 327.454 654 303.273C654 279.091 673.603 259.488 697.785 259.488C721.966 259.488 741.569 279.091 741.569 303.273Z" fill="#F9CD6B"/>
<path fill-rule="evenodd" clip-rule="evenodd" d="M872.414 159.694C872.414 172.511 862.024 182.901 849.207 182.901C836.39 182.901 826 172.511 826 159.694C826 146.878 836.39 136.488 849.207 136.488C862.024 136.488 872.414 146.878 872.414 159.694Z" fill="#F9CD6B"/>
<path fill-rule="evenodd" clip-rule="evenodd" d="M871 845.131C872.133 844.54 873.345 844.157 874.586 844.146C875.204 844.12 875.797 844.183 876.362 844.155C876.929 844.13 877.479 844.046 878.031 843.882C879.13 843.583 880.262 843.117 881.261 842.497C881.761 842.171 882.226 841.814 882.711 841.384C883.195 840.959 883.729 840.439 884.33 840.001C885.538 839.102 886.805 838.571 888.05 838.212C889.281 837.81 890.731 837.73 891.986 837.935C893.21 838.128 894.095 838.195 895.176 837.944C896.269 837.728 897.254 837.388 898.126 836.76C898.569 836.449 899.002 836.063 899.529 835.576C900.05 835.097 900.7 834.532 901.414 834.16C902.124 833.796 902.863 833.575 903.547 833.517C903.9 833.456 904.226 833.482 904.566 833.464C904.93 833.468 905.352 833.515 905.779 833.663C906.652 833.906 907.574 834.894 908.034 835.706C908.53 836.527 908.79 837.049 909.095 837.413C909.398 837.79 909.728 838.028 910.213 838.248C910.673 838.468 911.053 838.546 911.511 838.511C911.966 838.468 912.686 838.251 913.45 838.331C914.21 838.412 914.889 838.707 915.516 839.108C916.143 839.5 916.804 840.075 917.319 840.823C917.845 841.573 918.164 842.228 918.541 842.694C918.907 843.187 919.377 843.567 919.887 843.879C920.398 844.193 920.907 844.38 921.447 844.437C921.984 844.488 922.6 844.329 923.234 844.402C923.865 844.484 924.459 844.755 925 845.157C924.404 845.032 923.812 844.989 923.255 845.157C922.699 845.291 922.159 845.64 921.51 845.819C920.864 846.005 920.181 845.931 919.55 845.745C918.921 845.56 918.267 845.272 917.651 844.732C917.031 844.189 916.555 843.455 916.154 843.064C915.752 842.64 915.328 842.401 914.832 842.21C914.335 842.03 913.842 841.917 913.413 841.96C912.986 841.987 912.54 842.22 911.819 842.413C911.097 842.601 910.274 842.56 909.582 842.331C908.913 842.136 908.109 841.716 907.447 841.017C906.772 840.333 906.259 839.441 905.927 838.958C905.567 838.458 905.45 838.392 905.146 838.304C904.99 838.272 904.818 838.263 904.589 838.268C904.336 838.299 904.065 838.286 903.829 838.347C903.328 838.411 902.896 838.586 902.485 838.816C902.075 839.043 901.681 839.374 901.188 839.841C900.699 840.3 900.111 840.857 899.473 841.307C898.18 842.206 896.813 842.633 895.552 842.841C894.903 842.954 894.22 842.992 893.541 842.948C892.861 842.907 892.2 842.765 891.639 842.636C890.538 842.374 889.59 842.361 888.477 842.558C887.378 842.759 886.31 843.05 885.334 843.601C884.842 843.879 884.332 844.237 883.751 844.624C883.173 845.009 882.542 845.366 881.912 845.602C880.642 846.058 879.427 846.283 878.162 846.316C876.891 846.34 875.617 845.914 874.505 845.518C873.379 845.143 872.203 845.083 871 845.131Z" fill="#509FA6"/>
</g>
<defs>
<clipPath id="clip0_25_784">
<rect width="1088" height="939.263" fill="white"/>
</clipPath>
</defs>
</svg>
